<?xml version="1.0" encoding="utf-8"?>
<!-- Generator: Adobe Illustrator 21.0.0, SVG Export Plug-In . SVG Version: 6.00 Build 0)  -->
<svg version="1.1" id="Layer_1" xmlns="http://www.w3.org/2000/svg" xmlns:xlink="http://www.w3.org/1999/xlink" x="0px" y="0px"
	 width="354px" height="45px" viewBox="0 0 354 45" style="enable-background:new 0 0 354 45;" xml:space="preserve">
<style type="text/css">
	.st0{fill:#CACACA;}
	.st1{fill:#717171;}
	.st2{fill:#DD1F26;}
</style>
<g>
	<g>
		<rect x="221.7" y="4.6" class="st0" width="1.8" height="29.8"/>
	</g>
	<g>
		<g>
			<path class="st1" d="M253.4,5.6h19.5v2h-17.3v10.9h15.1v2h-15.1v11.1h17.7v2h-19.9V5.6z"/>
			<path class="st1" d="M284,33.9c-4,0-6.7-2.1-6.7-5.7c0-3.8,2.7-6.2,8.4-6.2h5.7c0-4.9-1.9-6.3-5.8-6.3c-3.1,0-4.9,1-6.1,2.7
				l-1.3-1.4c1.4-2.1,4-3.1,7.5-3.1c5,0,7.8,2,7.8,7.7v11.9h-1.9l-0.2-4.2C290.2,32.1,287.7,33.9,284,33.9z M291.4,24.6v-0.9h-5.6
				c-4.2,0-6.3,1.3-6.3,4.3c0,2.5,1.7,4,5,4C288.6,32.1,291.1,29.3,291.4,24.6z"/>
			<path class="st1" d="M317.4,33.3c0,6.1-3.9,8.6-9.3,8.6c-3.6,0-6.5-1-8.1-4.4l1.6-1.2c1.4,2.8,3.6,3.7,6.5,3.7c4.1,0,7-1.8,7-6.7
				v-3.9c-1.3,2.8-3.9,4.2-7.2,4.2c-5.2,0-8.2-3.5-8.2-9.9c0-6.3,2.9-9.8,8.2-9.8c3.3,0,5.9,1.4,7.2,4.1l0.2-3.7h1.9V33.3z
				 M308.4,15.6c-4.3,0-6.5,2.7-6.5,8c0,5.3,2.2,8.1,6.4,8.1c3.9,0,6.7-2.5,6.7-8.2C315.1,18,312.3,15.6,308.4,15.6z"/>
			<path class="st1" d="M325.1,29.4V5.6h2.2v23.5c0,1.9,0.6,2.5,2.4,2.5h1.4v1.8h-1.9C326.6,33.5,325.1,32.3,325.1,29.4z"/>
			<path class="st1" d="M334.2,23.9c0-6.6,3.1-10,8.8-10c5.5,0,8.2,3.6,8.2,9.4c0,0.6,0,1.3,0,1.3h-14.7c0.2,5.3,2.5,7.6,6.7,7.6
				c3.1,0,5.1-1,6.3-3.7l1.7,0.9c-1.4,3.2-4.2,4.7-8,4.7C337.4,33.9,334.2,30.7,334.2,23.9z M336.4,22.7h12.5
				c-0.2-4.9-2.2-7.1-6-7.1C338.9,15.6,336.7,17.8,336.4,22.7z"/>
		</g>
		<g>
			<path class="st2" d="M16.2,33.6V21.1H9.6v12.5H0.8V5.5h8.8v11.9h6.6V5.5H25v28.1H16.2z"/>
			<path class="st2" d="M46.8,31.8c-2,1.6-4.7,2.5-8,2.5V32c1.1,0,1.8-0.4,2.2-1.2c0.6-1.2,0.9-3.7,0.9-7.5c0-3.8-0.3-6.3-1-7.5
				c-0.4-0.7-1.1-1.1-2.1-1.1c-1,0-1.7,0.4-2.1,1.1c-0.6,1.2-0.9,3.7-0.9,7.5c0,3.8,0.3,6.3,0.9,7.5c0.4,0.8,1.1,1.2,2.2,1.2v2.3
				c-3.3,0-6-0.8-8-2.5c-2.3-1.9-3.5-4.7-3.5-8.4c0-3.5,1.1-6.2,3.2-8.2c2-1.8,4.8-2.7,8.2-2.7c3.5,0,6.2,0.9,8.2,2.7
				c2.2,1.9,3.2,4.6,3.2,8.2C50.2,27.1,49.1,29.9,46.8,31.8z"/>
			<path class="st2" d="M65.8,33.6V19.6c0-0.7-0.1-1.3-0.4-1.8c-0.3-0.6-0.9-0.9-1.6-0.9c-0.8,0-1.5,0.2-2.1,0.6
				c-0.6,0.4-1.1,0.9-1.4,1.5v14.5h-7.8V13.2h7.8v3.1c0.1-0.7,0.6-1.3,1.6-2c1.2-0.9,2.8-1.4,4.8-1.4c3.2,0,5.4,1.3,6.4,4
				c0.3,0.9,0.5,1.8,0.5,2.7v13.9H65.8z"/>
			<path class="st2" d="M87,24.9V22h3.3c0-2.5-0.2-4.3-0.6-5.3c-0.5-1.3-1.3-1.9-2.5-1.9c-1.4,0-2.3,0.6-2.7,1.9
				c-0.3,0.9-0.5,2.7-0.5,5.3h3V24.9h-3c0,0.3,0,0.8,0,1.4c0,1.7,0.2,2.9,0.7,3.8c0.7,1.2,2.1,1.9,4,1.9c2,0,3.6-0.5,4.5-1.5
				c0.7-0.7,1.1-1.6,1.1-2.6H98c0,1.5-0.7,2.8-2,4c-1.9,1.7-4.8,2.6-8.8,2.6c-3.4,0-6.1-0.9-8-2.7c-1.4-1.3-2.3-3-2.9-5
				c-0.2-1-0.4-1.9-0.4-3c0-1.1,0.1-2.1,0.3-3c0.5-2.1,1.4-3.8,2.8-5.1c1.9-1.8,4.6-2.7,8-2.7c3.6,0,6.4,1,8.3,2.9
				c1.4,1.4,2.3,3.3,2.7,5.6c0.2,0.9,0.2,2,0.2,3.6H87z"/>
			<path class="st2" d="M107.7,37.7c-0.3,0.8-1,1.7-2.1,2.4c-1.3,1-2.6,1.4-4.1,1.4c-1.4,0-2.6-0.4-3.5-1.1c-1-0.7-1.4-1.8-1.4-3.1
				c0-1.2,0.4-2.2,1.2-2.7c0.6-0.4,1.2-0.6,2-0.6c0.7,0,1.4,0.2,2.1,0.6c0.8,0.5,1.2,1.3,1.2,2.2c0,1.1-0.3,1.8-0.9,2.2
				c-0.1,0.1-0.2,0.1-0.4,0.1c0.1,0,0.2,0,0.4,0c0.7,0,1.3-0.3,2-1c0.8-0.8,1.4-1.9,1.7-3.3l0.1-1.1l-8-20.7h8.4l4,10.5l4.1-10.5
				l3,0L107.7,37.7z"/>
			<path class="st2" d="M143.3,33.6h-5.8l-3.9-12.7l-3.4,12.7H124l-6.3-20.5h8.2l3.4,11.7l3.2-11.7h6.5l3.4,11.8l3.2-11.8l3.2,0
				L143.3,33.6z"/>
			<path class="st2" d="M160.3,24.9V22h3.3c0-2.5-0.2-4.3-0.6-5.3c-0.5-1.3-1.3-1.9-2.5-1.9c-1.4,0-2.3,0.6-2.7,1.9
				c-0.3,0.9-0.5,2.7-0.5,5.3h3V24.9h-3c0,0.3,0,0.8,0,1.4c0,1.7,0.2,2.9,0.7,3.8c0.7,1.2,2.1,1.9,4,1.9c2,0,3.6-0.5,4.5-1.5
				c0.7-0.7,1.1-1.6,1.1-2.6h3.7c0,1.5-0.7,2.8-2,4c-1.9,1.7-4.8,2.6-8.8,2.6c-3.4,0-6.1-0.9-8-2.7c-1.4-1.3-2.3-3-2.9-5
				c-0.2-1-0.4-1.9-0.4-3c0-1.1,0.1-2.1,0.3-3c0.5-2.1,1.4-3.8,2.8-5.1c1.9-1.8,4.6-2.7,8-2.7c3.6,0,6.4,1,8.3,2.9
				c1.4,1.4,2.3,3.3,2.7,5.6c0.2,0.9,0.2,2,0.2,3.6H160.3z"/>
			<path class="st2" d="M174,33.6V5.5h7.6v28.1H174z"/>
			<path class="st2" d="M184.9,33.6V5.5h7.6v28.1H184.9z"/>
		</g>
	</g>
</g>
</svg>
