<?xml version="1.0" encoding="utf-8"?>
<!-- Generator: Adobe Illustrator 19.2.0, SVG Export Plug-In . SVG Version: 6.00 Build 0)  -->
<svg version="1.1" xmlns="http://www.w3.org/2000/svg" xmlns:xlink="http://www.w3.org/1999/xlink" x="0px" y="0px"
	 viewBox="0 0 792.1 792.1" style="enable-background:new 0 0 792.1 792.1;" xml:space="preserve">
<style type="text/css">
	.st0{display:none;}
	.st1{display:inline;}
	.st2{opacity:0.2;fill:#F69791;}
	.st3{fill:#B0B0B0;}
	.st4{fill:#1792E5;}
	.st5{fill:#1272B2;}
	.st6{fill:#F7F7F7;}
	.st7{fill:#E0E0E0;}
	.st8{fill:#808080;}
	.st9{fill:#FFFFFF;}
	.st10{fill:#D0D0D0;}
	.st11{fill:#E1E1E1;}
	.st12{fill-rule:evenodd;clip-rule:evenodd;fill:#B0B0B0;}
	.st13{fill-rule:evenodd;clip-rule:evenodd;fill:#1792E5;}
	.st14{fill-rule:evenodd;clip-rule:evenodd;fill:#1272B2;}
</style>
<g id="bg" class="st0">
	<g class="st1">
		<g>
			<rect class="st2" width="24" height="792.1"/>
		</g>
		<g>
			<rect x="48" class="st2" width="24" height="792.1"/>
		</g>
		<g>
			<rect x="96" class="st2" width="24" height="792.1"/>
		</g>
		<g>
			<rect x="144" class="st2" width="24" height="792.1"/>
		</g>
		<g>
			<rect x="192" class="st2" width="24" height="792.1"/>
		</g>
		<g>
			<rect x="240" class="st2" width="24" height="792.1"/>
		</g>
		<g>
			<rect x="288" class="st2" width="24" height="792.1"/>
		</g>
		<g>
			<rect x="336" class="st2" width="24" height="792.1"/>
		</g>
		<g>
			<rect x="384" class="st2" width="24" height="792.1"/>
		</g>
		<g>
			<rect x="432" class="st2" width="24" height="792.1"/>
		</g>
		<g>
			<rect x="480" class="st2" width="24" height="792.1"/>
		</g>
		<g>
			<rect x="528.1" class="st2" width="24" height="792.1"/>
		</g>
		<g>
			<rect x="576.1" class="st2" width="24" height="792.1"/>
		</g>
		<g>
			<rect x="624.1" class="st2" width="24" height="792.1"/>
		</g>
		<g>
			<rect x="672.1" class="st2" width="24" height="792.1"/>
		</g>
		<g>
			<rect x="720.1" class="st2" width="24" height="792.1"/>
		</g>
		<g>
			<rect x="768.1" class="st2" width="24" height="792.1"/>
		</g>
	</g>
	<g class="st1">
		<g>
			
				<rect x="384" y="-384" transform="matrix(4.448956e-11 1 -1 4.448956e-11 408.0376 -384.0376)" class="st2" width="24" height="792.1"/>
		</g>
		<g>
			
				<rect x="384" y="-336" transform="matrix(4.445137e-11 1 -1 4.445137e-11 456.0445 -336.0308)" class="st2" width="24" height="792.1"/>
		</g>
		<g>
			
				<rect x="384" y="-288" transform="matrix(4.448956e-11 1 -1 4.448956e-11 504.0513 -288.0239)" class="st2" width="24" height="792.1"/>
		</g>
		<g>
			
				<rect x="384" y="-240" transform="matrix(4.445137e-11 1 -1 4.445137e-11 552.0513 -240.0239)" class="st2" width="24" height="792.1"/>
		</g>
		<g>
			
				<rect x="384" y="-192" transform="matrix(4.448956e-11 1 -1 4.448956e-11 600.0582 -192.0171)" class="st2" width="24" height="792.1"/>
		</g>
		<g>
			
				<rect x="384" y="-144" transform="matrix(4.441318e-11 1 -1 4.441318e-11 648.065 -144.0103)" class="st2" width="24" height="792.1"/>
		</g>
		<g>
			
				<rect x="384" y="-96" transform="matrix(4.448956e-11 1 -1 4.448956e-11 696.065 -96.0103)" class="st2" width="24" height="792.1"/>
		</g>
		<g>
			
				<rect x="384" y="-48" transform="matrix(4.445137e-11 1 -1 4.445137e-11 744.0718 -48.0034)" class="st2" width="24" height="792.1"/>
		</g>
		<g>
			
				<rect x="384" y="0" transform="matrix(4.448956e-11 1 -1 4.448956e-11 792.0787 3.421335e-03)" class="st2" width="24" height="792.1"/>
		</g>
		<g>
			
				<rect x="384" y="48" transform="matrix(4.445137e-11 1 -1 4.445137e-11 840.0787 48.0034)" class="st2" width="24" height="792.1"/>
		</g>
		<g>
			
				<rect x="384" y="96" transform="matrix(4.445137e-11 1 -1 4.445137e-11 888.0855 96.0103)" class="st2" width="24" height="792.1"/>
		</g>
		<g>
			
				<rect x="384" y="144" transform="matrix(4.445137e-11 1 -1 4.445137e-11 936.0923 144.0171)" class="st2" width="24" height="792.1"/>
		</g>
		<g>
			
				<rect x="384" y="192" transform="matrix(4.445137e-11 1 -1 4.445137e-11 984.0923 192.0171)" class="st2" width="24" height="792.1"/>
		</g>
		<g>
			
				<rect x="384" y="240" transform="matrix(4.445137e-11 1 -1 4.445137e-11 1032.0991 240.0239)" class="st2" width="24" height="792.1"/>
		</g>
		<g>
			
				<rect x="384" y="288" transform="matrix(4.445137e-11 1 -1 4.445137e-11 1080.1061 288.0308)" class="st2" width="24" height="792.1"/>
		</g>
		<g>
			
				<rect x="384" y="336" transform="matrix(4.441318e-11 1 -1 4.441318e-11 1128.1061 336.0308)" class="st2" width="24" height="792.1"/>
		</g>
		<g>
			
				<rect x="384" y="384" transform="matrix(4.445137e-11 1 -1 4.445137e-11 1176.1129 384.0376)" class="st2" width="24" height="792.1"/>
		</g>
	</g>
</g>
<g id="icons">
	<g>
		<g>
			<path class="st3" d="M36,43c-5.7,0-9.5-6.2-9.6-6.5L26.1,36l0.3-0.5c0.2-0.3,3.9-6.5,9.6-6.5c5.7,0,9.5,6.2,9.6,6.5l0.3,0.5
				l-0.3,0.5C45.5,36.8,41.7,43,36,43z M28.4,36c1,1.4,3.8,5,7.6,5c3.7,0,6.6-3.6,7.6-5c-1-1.4-3.8-5-7.6-5
				C32.3,31,29.4,34.6,28.4,36z"/>
		</g>
		<path class="st3" d="M35.9,35c0.6,0,1,0.5,1,1c0,0.6-0.5,1-1,1s-1-0.5-1-1C34.9,35.4,35.4,35,35.9,35 M35.9,33c-1.7,0-3,1.3-3,3
			c0,1.7,1.3,3,3,3c1.7,0,3-1.3,3-3C38.9,34.3,37.6,33,35.9,33L35.9,33z"/>
	</g>
	<g>
		<g>
			<path class="st4" d="M36,67c-5.7,0-9.5-6.2-9.6-6.5L26.1,60l0.3-0.5c0.2-0.3,3.9-6.5,9.6-6.5c5.7,0,9.5,6.2,9.6,6.5l0.3,0.5
				l-0.3,0.5C45.5,60.8,41.7,67,36,67z M28.4,60c1,1.4,3.8,5,7.6,5c3.7,0,6.6-3.6,7.6-5c-1-1.4-3.8-5-7.6-5
				C32.3,55,29.4,58.6,28.4,60z"/>
		</g>
		<path class="st4" d="M35.9,59c0.6,0,1,0.5,1,1c0,0.6-0.5,1-1,1s-1-0.5-1-1C34.9,59.4,35.4,59,35.9,59 M35.9,57c-1.7,0-3,1.3-3,3
			c0,1.7,1.3,3,3,3c1.7,0,3-1.3,3-3C38.9,58.3,37.6,57,35.9,57L35.9,57z"/>
	</g>
	<g>
		<g>
			<path class="st5" d="M36,91c-5.7,0-9.5-6.2-9.6-6.5L26.1,84l0.3-0.5c0.2-0.3,3.9-6.5,9.6-6.5c5.7,0,9.5,6.2,9.6,6.5l0.3,0.5
				l-0.3,0.5C45.5,84.8,41.7,91,36,91z M28.4,84c1,1.4,3.8,5,7.6,5c3.7,0,6.6-3.6,7.6-5c-1-1.4-3.8-5-7.6-5
				C32.3,79,29.4,82.6,28.4,84z"/>
		</g>
		<path class="st5" d="M35.9,83c0.6,0,1,0.5,1,1c0,0.6-0.5,1-1,1s-1-0.5-1-1C34.9,83.4,35.4,83,35.9,83 M35.9,81c-1.7,0-3,1.3-3,3
			c0,1.7,1.3,3,3,3c1.7,0,3-1.3,3-3C38.9,82.3,37.6,81,35.9,81L35.9,81z"/>
	</g>
	<g>
		<g>
			
				<rect x="35.1" y="95.4" transform="matrix(0.7096 -0.7046 0.7046 0.7096 -65.6369 56.7785)" class="st3" width="2" height="25.3"/>
		</g>
		<g>
			<path class="st3" d="M36,115c-5.7,0-9.5-6.2-9.6-6.5l-0.3-0.5l0.3-0.5c0.1-0.2,2.2-3.5,5.3-5.3c0.1,0.1,1,1,1.5,1.5
				c-2.3,1.1-4,3.3-4.7,4.3c1,1.4,3.8,5,7.6,5c1.5,0,3.1-0.6,4.6-1.8c0.4,0.4,1,1,1.4,1.4C40.1,114.2,38.1,115,36,115z"/>
			<path class="st3" d="M42.1,109.8c0.5-0.6,1.2-1.4,1.5-1.8c-1-1.4-3.8-5-7.6-5c-0.2,0-0.4,0-0.7,0c-0.4-0.4-1.2-1.2-1.7-1.7
				c0.8-0.2,1.6-0.4,2.4-0.4c5.7,0,9.5,6.2,9.6,6.5l0.3,0.5l-0.3,0.5c0,0.1-0.8,1.4-2.1,2.8C43.1,110.9,42.5,110.2,42.1,109.8z"/>
		</g>
		<g>
			<path class="st3" d="M38.1,110.1c-1.2,1.2-3.1,1.2-4.2,0c-1.2-1.2-1.2-3.1,0-4.2"/>
		</g>
	</g>
	<g>
		<g>
			
				<rect x="35.1" y="119.4" transform="matrix(0.7096 -0.7046 0.7046 0.7096 -82.548 63.7487)" class="st4" width="2" height="25.3"/>
		</g>
		<g>
			<path class="st4" d="M36,139c-5.7,0-9.5-6.2-9.6-6.5l-0.3-0.5l0.3-0.5c0.1-0.2,2.2-3.5,5.3-5.3c0.1,0.1,1,1,1.5,1.5
				c-2.3,1.1-4,3.3-4.7,4.3c1,1.4,3.8,5,7.6,5c1.5,0,3.1-0.6,4.6-1.8c0.4,0.4,1,1,1.4,1.4C40.1,138.2,38.1,139,36,139z"/>
			<path class="st4" d="M42.1,133.8c0.5-0.6,1.2-1.4,1.5-1.8c-1-1.4-3.8-5-7.6-5c-0.2,0-0.4,0-0.7,0c-0.4-0.4-1.2-1.2-1.7-1.7
				c0.8-0.2,1.6-0.4,2.4-0.4c5.7,0,9.5,6.2,9.6,6.5l0.3,0.5l-0.3,0.5c0,0.1-0.8,1.4-2.1,2.8C43.1,134.9,42.5,134.2,42.1,133.8z"/>
		</g>
		<g>
			<path class="st4" d="M38.1,134.1c-1.2,1.2-3.1,1.2-4.2,0c-1.2-1.2-1.2-3.1,0-4.2"/>
		</g>
	</g>
	<g>
		<g>
			
				<rect x="35.1" y="143.4" transform="matrix(0.7096 -0.7046 0.7046 0.7096 -99.4592 70.7189)" class="st5" width="2" height="25.3"/>
		</g>
		<g>
			<path class="st5" d="M36,163c-5.7,0-9.5-6.2-9.6-6.5l-0.3-0.5l0.3-0.5c0.1-0.2,2.2-3.5,5.3-5.3c0.1,0.1,1,1,1.5,1.5
				c-2.3,1.1-4,3.3-4.7,4.3c1,1.4,3.8,5,7.6,5c1.5,0,3.1-0.6,4.6-1.8c0.4,0.4,1,1,1.4,1.4C40.1,162.2,38.1,163,36,163z"/>
			<path class="st5" d="M42.1,157.8c0.5-0.6,1.2-1.4,1.5-1.8c-1-1.4-3.8-5-7.6-5c-0.2,0-0.4,0-0.7,0c-0.4-0.4-1.2-1.2-1.7-1.7
				c0.8-0.2,1.6-0.4,2.4-0.4c5.7,0,9.5,6.2,9.6,6.5l0.3,0.5l-0.3,0.5c0,0.1-0.8,1.4-2.1,2.8C43.1,158.9,42.5,158.2,42.1,157.8z"/>
		</g>
		<g>
			<path class="st5" d="M38.1,158.1c-1.2,1.2-3.1,1.2-4.2,0c-1.2-1.2-1.2-3.1,0-4.2"/>
		</g>
	</g>
	<g>
		<g>
			<circle class="st6" cx="84" cy="36" r="7.5"/>
			<path class="st7" d="M84,29c3.9,0,7,3.1,7,7s-3.1,7-7,7s-7-3.1-7-7S80.1,29,84,29 M84,28c-4.4,0-8,3.6-8,8s3.6,8,8,8
				c4.4,0,8-3.6,8-8S88.4,28,84,28L84,28z"/>
		</g>
		<g>
			<polygon class="st8" points="84.8,39.2 83.2,39.2 83.2,40.8 84.8,40.8 84.8,39.2 			"/>
			<path class="st8" d="M84.8,38.4h-1.6V36H84c0.9,0,1.6-0.7,1.6-1.6c0-0.9-0.7-1.6-1.6-1.6c-0.9,0-1.6,0.7-1.6,1.6h-1.6
				c0-1.8,1.4-3.2,3.2-3.2c1.8,0,3.2,1.4,3.2,3.2c0,1.5-1,2.7-2.4,3.1V38.4z"/>
		</g>
	</g>
	<g>
		<g>
			<circle class="st4" cx="84" cy="60" r="8"/>
		</g>
		<g>
			<polygon class="st9" points="84.8,63.2 83.2,63.2 83.2,64.8 84.8,64.8 84.8,63.2 			"/>
			<path class="st9" d="M84.8,62.4h-1.6V60H84c0.9,0,1.6-0.7,1.6-1.6s-0.7-1.6-1.6-1.6c-0.9,0-1.6,0.7-1.6,1.6h-1.6
				c0-1.8,1.4-3.2,3.2-3.2c1.8,0,3.2,1.4,3.2,3.2c0,1.5-1,2.7-2.4,3.1V62.4z"/>
		</g>
	</g>
	<g>
		<g>
			<circle class="st5" cx="84" cy="84" r="8"/>
		</g>
		<g>
			<polygon class="st9" points="84.8,87.2 83.2,87.2 83.2,88.8 84.8,88.8 84.8,87.2 			"/>
			<path class="st9" d="M84.8,86.4h-1.6V84H84c0.9,0,1.6-0.7,1.6-1.6c0-0.9-0.7-1.6-1.6-1.6c-0.9,0-1.6,0.7-1.6,1.6h-1.6
				c0-1.8,1.4-3.2,3.2-3.2c1.8,0,3.2,1.4,3.2,3.2c0,1.5-1,2.7-2.4,3.1V86.4z"/>
		</g>
	</g>
	<g>
		<g>
			<g>
				<rect x="124" y="76" class="st4" width="16" height="16"/>
			</g>
		</g>
		<polygon class="st9" points="130.6,88.2 127.1,84.7 128.5,83.3 130.6,85.4 135.5,80.5 137,81.9 		"/>
	</g>
	<g>
		<g>
			<g>
				<path class="st10" d="M139,29v14h-14V29H139 M140,28h-16v16h16V28L140,28z"/>
			</g>
		</g>
	</g>
	<g>
		<g>
			<g>
				<path class="st11" d="M139,101v14h-14v-14H139 M140,100h-16v16h16V100L140,100z"/>
			</g>
		</g>
	</g>
	<g>
		<g>
			<g>
				<path class="st3" d="M139,53v14h-14V53H139 M140,52h-16v16h16V52L140,52z"/>
			</g>
		</g>
	</g>
	<g>
		<g>
			<g>
				<path class="st10" d="M132,125c3.9,0,7,3.1,7,7c0,3.9-3.1,7-7,7s-7-3.1-7-7C125,128.1,128.2,125,132,125 M132,124
					c-4.4,0-8,3.6-8,8c0,4.4,3.6,8,8,8c4.4,0,8-3.6,8-8C140,127.6,136.4,124,132,124L132,124z"/>
			</g>
		</g>
		<g>
			<g>
				<path class="st11" d="M132,197c3.9,0,7,3.1,7,7c0,3.9-3.1,7-7,7s-7-3.1-7-7C125,200.2,128.2,197,132,197 M132,196
					c-4.4,0-8,3.6-8,8s3.6,8,8,8c4.4,0,8-3.6,8-8S136.4,196,132,196L132,196z"/>
			</g>
		</g>
		<g>
			<g>
				<path class="st3" d="M132,149c3.9,0,7,3.1,7,7c0,3.9-3.1,7-7,7s-7-3.1-7-7C125,152.1,128.2,149,132,149 M132,148
					c-4.4,0-8,3.6-8,8c0,4.4,3.6,8,8,8c4.4,0,8-3.6,8-8C140,151.6,136.4,148,132,148L132,148z"/>
			</g>
		</g>
		<g>
			<g>
				<circle class="st4" cx="132" cy="180" r="8"/>
			</g>
			<g>
				<circle class="st9" cx="132" cy="180" r="4"/>
			</g>
		</g>
	</g>
	<g>
		<g>
			<polygon class="st3" points="46,188 26,188 26,181 28,181 28,186 44,186 44,181 46,181 			"/>
		</g>
		<g>
			<polygon class="st3" points="36,184 31.2,179.2 32.6,177.8 36,181.2 39.4,177.8 40.8,179.2 			"/>
			<rect x="35" y="172" class="st3" width="2" height="10.2"/>
		</g>
	</g>
	<g>
		<g>
			<polygon class="st4" points="46,212 26,212 26,205 28,205 28,210 44,210 44,205 46,205 			"/>
		</g>
		<g>
			<polygon class="st4" points="36,208 31.2,203.2 32.6,201.8 36,205.2 39.4,201.8 40.8,203.2 			"/>
			<rect x="35" y="196" class="st4" width="2" height="10.2"/>
		</g>
	</g>
	<g>
		<g>
			<polygon class="st5" points="46,236 26,236 26,229 28,229 28,234 44,234 44,229 46,229 			"/>
		</g>
		<g>
			<polygon class="st5" points="36,232 31.2,227.2 32.6,225.8 36,229.2 39.4,225.8 40.8,227.2 			"/>
			<rect x="35" y="220" class="st5" width="2" height="10.2"/>
		</g>
	</g>
	<g>
		<g>
			<path class="st3" d="M70,43H50V29h20V43z M52,41h16V31H52V41z"/>
			<polygon class="st3" points="60,38 50.4,30.8 51.6,29.2 60,35.5 68.4,29.2 69.6,30.8 			"/>
		</g>
		<g>
			<path class="st4" d="M70,67H50V53h20V67z M52,65h16V55H52V65z"/>
			<polygon class="st4" points="60,62 50.4,54.8 51.6,53.2 60,59.5 68.4,53.2 69.6,54.8 			"/>
		</g>
		<g>
			<path class="st5" d="M70,91H50V77h20V91z M52,89h16V79H52V89z"/>
			<polygon class="st5" points="60,86 50.4,78.8 51.6,77.2 60,83.5 68.4,77.2 69.6,78.8 			"/>
		</g>
	</g>
	<g>
		<g>
			<g>
				<polygon class="st3" points="38.6,249.5 38.6,247.5 43.6,247.5 43.6,242.5 45.6,242.5 45.6,249.5 				"/>
			</g>
		</g>
		<path class="st3" d="M36.1,261.5c-1.3,0-2.5-0.3-3.7-0.8c-2.3-1-4.2-2.8-5.1-5.2c-1-2.4-0.9-4.9,0.1-7.3c1-2.3,2.8-4.2,5.2-5.1
			c2.4-1,4.9-0.9,7.3,0.1c2.3,1,4.2,2.8,5.1,5.2l-1.9,0.8c-0.8-1.9-2.2-3.3-4-4.1c-1.8-0.8-3.9-0.8-5.8,0c-3.8,1.6-5.7,5.9-4.1,9.8
			c0.8,1.9,2.2,3.3,4,4.1c1.8,0.8,3.9,0.8,5.8,0c2.2-0.9,3.9-2.8,4.5-5.1l1.9,0.5c-0.7,2.9-2.8,5.4-5.7,6.5
			C38.5,261.3,37.3,261.5,36.1,261.5z"/>
	</g>
	<g>
		<g>
			<path class="st3" d="M163.4,42.4l-1.4-1.4c1.3-1.3,2.1-3.1,2.1-5s-0.7-3.6-2.1-5l1.4-1.4C166.9,33.1,166.9,38.8,163.4,42.4z"/>
			<path class="st3" d="M160.5,39.5l-1.4-1.4c0.6-0.6,0.9-1.3,0.9-2.1s-0.3-1.6-0.9-2.1l1.4-1.4c0.9,0.9,1.5,2.2,1.5,3.5
				S161.5,38.6,160.5,39.5z"/>
		</g>
		<path class="st3" d="M155,30.5v11.2l-4-2.3l-0.5-0.3H150h-2v-6h2h0.5l0.5-0.3L155,30.5 M157,27l-7,4.1h-4v10h4l7,3.9V27L157,27z"
			/>
		<rect x="150" y="31.1" class="st12" width="1" height="10"/>
	</g>
	<g>
		<g>
			<path class="st4" d="M163.4,66.4L162,65c1.3-1.3,2.1-3.1,2.1-5s-0.7-3.6-2.1-5l1.4-1.4C166.9,57.1,166.9,62.9,163.4,66.4z"/>
			<path class="st4" d="M160.5,63.5l-1.4-1.4c0.6-0.6,0.9-1.3,0.9-2.1s-0.3-1.6-0.9-2.1l1.4-1.4c0.9,0.9,1.5,2.2,1.5,3.5
				S161.5,62.6,160.5,63.5z"/>
		</g>
		<path class="st4" d="M155,54.5v11.2l-4-2.3l-0.5-0.3H150h-2v-6h2h0.5l0.5-0.3L155,54.5 M157,51l-7,4.1h-4v10h4l7,3.9V51L157,51z"
			/>
		<rect x="150" y="55.1" class="st13" width="1" height="10"/>
	</g>
	<g>
		<g>
			<path class="st5" d="M163.4,90.4L162,89c1.3-1.3,2.1-3.1,2.1-5s-0.7-3.6-2.1-5l1.4-1.4C166.9,81.1,166.9,86.9,163.4,90.4z"/>
			<path class="st5" d="M160.5,87.5l-1.4-1.4c0.6-0.6,0.9-1.3,0.9-2.1s-0.3-1.6-0.9-2.1l1.4-1.4c0.9,0.9,1.5,2.2,1.5,3.5
				S161.5,86.6,160.5,87.5z"/>
		</g>
		<path class="st5" d="M155,78.5v11.2l-4-2.3l-0.5-0.3H150h-2v-6h2h0.5l0.5-0.3L155,78.5 M157,75l-7,4.1h-4v10h4l7,3.9V75L157,75z"
			/>
		<rect x="150" y="79.1" class="st14" width="1" height="10"/>
	</g>
	<g>
		<g>
			<g>
				<polygon class="st4" points="38.6,273.5 38.6,271.5 43.6,271.5 43.6,266.5 45.6,266.5 45.6,273.5 				"/>
			</g>
		</g>
		<path class="st4" d="M36.1,285.6c-1.3,0-2.5-0.3-3.7-0.8c-2.3-1-4.2-2.8-5.1-5.2c-1-2.4-0.9-4.9,0.1-7.3c1-2.3,2.8-4.2,5.2-5.1
			c2.4-1,4.9-0.9,7.3,0.1c2.3,1,4.2,2.8,5.1,5.2l-1.9,0.8c-0.8-1.9-2.2-3.3-4-4.1c-1.8-0.8-3.9-0.8-5.8,0c-3.8,1.6-5.7,5.9-4.1,9.8
			c0.8,1.9,2.2,3.3,4,4.1c1.8,0.8,3.9,0.8,5.8,0c2.2-0.9,3.9-2.8,4.5-5.1l1.9,0.5c-0.7,2.9-2.8,5.4-5.7,6.5
			C38.5,285.3,37.3,285.6,36.1,285.6z"/>
	</g>
	<g>
		<g>
			<g>
				<polygon class="st5" points="38.6,297.5 38.6,295.5 43.6,295.5 43.6,290.5 45.6,290.5 45.6,297.5 				"/>
			</g>
		</g>
		<path class="st5" d="M36.1,309.6c-1.3,0-2.5-0.3-3.7-0.8c-2.3-1-4.2-2.8-5.1-5.2c-1-2.4-0.9-4.9,0.1-7.3c1-2.3,2.8-4.2,5.2-5.1
			c2.4-1,4.9-0.9,7.3,0.1c2.3,1,4.2,2.8,5.1,5.2l-1.9,0.8c-0.8-1.9-2.2-3.3-4-4.1c-1.8-0.8-3.9-0.8-5.8,0c-3.8,1.6-5.7,5.9-4.1,9.8
			c0.8,1.9,2.2,3.3,4,4.1c1.8,0.8,3.9,0.8,5.8,0c2.2-0.9,3.9-2.8,4.5-5.1l1.9,0.5c-0.7,2.9-2.8,5.4-5.7,6.5
			C38.5,309.3,37.3,309.6,36.1,309.6z"/>
	</g>
</g>
</svg>
